<svg width="10" height="19" viewBox="0 0 10 19" fill="none" xmlns="http://www.w3.org/2000/svg">
<path fill-rule="evenodd" clip-rule="evenodd" d="M0.156836 0.671716C0.268022 0.561854 0.41803 0.500244 0.574337 0.500244C0.730644 0.500244 0.880651 0.561854 0.991836 0.671716L9.82084 9.09972C9.87721 9.15 9.92232 9.21163 9.9532 9.28056C9.98409 9.34949 10.0001 9.42418 10.0001 9.49972C10.0001 9.57525 9.98409 9.64994 9.9532 9.71887C9.92232 9.78781 9.87721 9.84944 9.82084 9.89972L1.02084 18.3277C0.909382 18.4369 0.759875 18.4986 0.603837 18.4997C0.447714 18.499 0.298055 18.4373 0.186837 18.3277C0.130466 18.2774 0.085359 18.2158 0.0544738 18.1469C0.0235886 18.0779 0.00762266 18.0033 0.00762266 17.9277C0.00762266 17.8522 0.0235886 17.7775 0.0544738 17.7086C0.085359 17.6396 0.130466 17.578 0.186837 17.5277L8.53784 9.49872L0.154837 1.46972C0.0548963 1.36056 -0.000368609 1.21782 1.85049e-06 1.06983C0.00037231 0.921828 0.0563509 0.779373 0.156836 0.670716V0.671716Z" fill="black"/>
</svg>
