<svg width="21" height="24" viewBox="0 0 21 24" fill="none" xmlns="http://www.w3.org/2000/svg">
<path d="M5.29622 9.63001V7.45001C5.29622 6.07075 5.84413 4.74799 6.81941 3.7727C7.79469 2.79742 9.11746 2.24951 10.4967 2.24951C11.876 2.24951 13.1987 2.79742 14.174 3.7727C15.1493 4.74799 15.6972 6.07075 15.6972 7.45001V9.63001M3.58622 9.63001H17.4162C17.668 9.63028 17.9094 9.73048 18.0873 9.90861C18.2653 10.0867 18.3652 10.3282 18.3652 10.58V20.8C18.3652 21.0519 18.2652 21.2934 18.0871 21.4716C17.9091 21.6497 17.6676 21.7499 17.4157 21.75H3.58672C3.33476 21.75 3.09313 21.6499 2.91497 21.4718C2.73681 21.2936 2.63672 21.052 2.63672 20.8V10.58C2.63672 10.3281 2.73681 10.0864 2.91497 9.90826C3.09313 9.7301 3.33476 9.63001 3.58672 9.63001H3.58622Z" stroke="white" stroke-linecap="round" stroke-linejoin="round"/>
<path d="M10.4955 17.7071C11.6095 17.7071 12.5125 16.8041 12.5125 15.6901C12.5125 14.5761 11.6095 13.6731 10.4955 13.6731C9.38156 13.6731 8.47852 14.5761 8.47852 15.6901C8.47852 16.8041 9.38156 17.7071 10.4955 17.7071Z" stroke="white" stroke-linecap="round" stroke-linejoin="round"/>
</svg>
