<svg width="41" height="64" viewBox="0 0 41 64" fill="none" xmlns="http://www.w3.org/2000/svg">
<path d="M13.8797 58.446C13.8797 55.4282 16.3261 52.9817 19.3439 52.9817H20.1308C23.1486 52.9817 25.5951 55.4282 25.5951 58.446C25.5951 61.4638 23.1486 63.9103 20.1308 63.9103H19.3439C16.3261 63.9103 13.8797 61.4638 13.8797 58.446ZM4.96194 21.3326C2.20967 21.3326 -0.0844419 19.0833 0.39026 16.3723C0.621716 15.0504 0.950753 13.7896 1.37737 12.5897C2.36823 9.96686 3.76709 7.72286 5.57394 5.85771C7.43909 3.99257 9.65394 2.56457 12.2185 1.57371C14.8414 0.52457 17.7557 0 20.9614 0C23.6425 0 26.1197 0.408 28.3928 1.224C30.7242 1.98171 32.7351 3.11828 34.4254 4.63371C36.174 6.09085 37.5437 7.92685 38.5345 10.1417C39.5254 12.3566 40.0208 14.8629 40.0208 17.6606C40.0208 19.7006 39.7877 21.4783 39.3214 22.9937C38.9134 24.4509 38.3305 25.7331 37.5728 26.8406C36.8734 27.8897 36.0574 28.8514 35.1248 29.7257C34.1922 30.5417 33.2597 31.3577 32.3271 32.1737C31.2197 33.1063 30.1997 34.0097 29.2671 34.884C28.3345 35.7583 27.5185 36.7491 26.8191 37.8566C26.1197 38.9057 25.5659 40.1589 25.1579 41.616C25.1087 41.8212 25.0629 42.0328 25.0206 42.2508C24.5236 44.8104 22.5196 46.9491 19.9122 46.9491C17.3048 46.9491 15.1486 44.8312 15.3569 42.2321C15.4069 41.6083 15.4682 41.0241 15.5408 40.4794C15.8322 38.6726 16.2694 37.0989 16.8522 35.7583C17.4351 34.4177 18.1345 33.252 18.9505 32.2611C19.8248 31.212 20.8448 30.192 22.0105 29.2011C22.9431 28.3851 23.8174 27.6274 24.6334 26.928C25.5077 26.2286 26.2654 25.4709 26.9065 24.6549C27.6059 23.7806 28.1305 22.8189 28.4802 21.7697C28.8882 20.7206 29.0922 19.4674 29.0922 18.0103C29.0922 16.2617 28.7717 14.7754 28.1305 13.5514C27.5477 12.2691 26.8191 11.2491 25.9448 10.4914C25.0705 9.73371 24.1379 9.18 23.1471 8.83028C22.1562 8.48057 21.2819 8.30571 20.5242 8.30571C16.9105 8.30571 14.2294 9.50057 12.4808 11.8903C11.5666 13.1512 10.8997 14.6508 10.4799 16.3891C9.83388 19.0645 7.71422 21.3326 4.96194 21.3326Z" fill="#EFC880"/>
</svg>
