<svg width="41" height="31" viewBox="0 0 41 31" fill="none" xmlns="http://www.w3.org/2000/svg">
<path fill-rule="evenodd" clip-rule="evenodd" d="M25.1039 24.2259L30.7803 10.3452L25.6818 24.4487C25.668 24.4869 25.6468 24.522 25.6193 24.5521C25.5919 24.5821 25.5589 24.6064 25.5221 24.6237C25.4853 24.641 25.4454 24.6508 25.4048 24.6527C25.3642 24.6545 25.3236 24.6484 25.2854 24.6346C25.2472 24.6207 25.212 24.5995 25.182 24.5721C25.152 24.5447 25.1276 24.5117 25.1103 24.4749C25.0931 24.4381 25.0832 24.3982 25.0814 24.3576C25.0795 24.317 25.0857 24.2764 25.0995 24.2382L25.1039 24.2259Z" fill="#010202"/>
<path d="M17.813 24.7786C17.813 24.7786 12.8571 23.5525 11.0911 21.5411C9.32599 19.5286 6.47894 16.6835 6.72435 4.66238C6.72435 4.66238 8.58927 2.74927 18.5001 8.09714M25.5112 24.0099C25.2162 24.7462 26.1535 30.0773 26.1535 30.0773C26.1535 30.0773 22.3268 27.5755 20.4137 22.9634C18.4996 18.3512 19.2363 17.4193 19.3834 14.7207C19.5299 12.0217 22.0145 7.81091 23.4801 6.40435C24.536 5.39025 28.0711 2.72566 29.9901 1.29599C30.1535 1.1745 30.3399 1.08758 30.538 1.04054C30.7361 0.993498 30.9418 0.987325 31.1423 1.02239C31.3429 1.05747 31.5342 1.13304 31.7046 1.24451C31.875 1.35599 32.0209 1.50101 32.1334 1.67074C34.3573 4.99533 35.6291 8.90664 35.546 12.906C35.4968 15.278 34.973 17.6696 33.4283 19.2517C33.4283 19.2517 29.785 22.7671 26.8406 23.1104C23.8971 23.4537 25.8501 28.8271 25.8501 28.8271L25.5112 24.0099Z" stroke="#010202" stroke-width="0.5" stroke-linecap="round" stroke-linejoin="round"/>
<path fill-rule="evenodd" clip-rule="evenodd" d="M12.6213 9.99589C13.3496 10.7177 14.0453 11.4715 14.7065 12.2552C15.038 12.6472 15.3896 13.0288 15.6513 13.4798C15.8913 13.9323 16.1745 14.4123 16.1667 14.9631C16.1666 14.968 16.1649 14.9728 16.1618 14.9767C16.1587 14.9805 16.1544 14.9832 16.1496 14.9843C16.1448 14.9855 16.1398 14.985 16.1353 14.9829C16.1308 14.9808 16.1271 14.9773 16.1249 14.9729L16.1234 14.969C15.8913 14.5161 15.5849 14.128 15.2824 13.7247C14.9829 13.3215 14.7173 12.8897 14.4272 12.4721C13.8308 11.6441 13.2177 10.8282 12.5883 10.0249C12.5865 10.0226 12.5851 10.02 12.5843 10.0172C12.5835 10.0144 12.5833 10.0115 12.5837 10.0086C12.584 10.0057 12.585 10.0029 12.5865 10.0004C12.5879 9.99786 12.5899 9.99566 12.5922 9.99393C12.5965 9.99059 12.6018 9.98894 12.6071 9.98931C12.6125 9.98967 12.6175 9.99202 12.6213 9.99589Z" fill="#010202"/>
</svg>
